#!OML:ASF F:\VICON\USERDATA\INSTALL\rory3\rory3.ASF
:FULLY-SPECIFIED
:DEGREES
345
root 1.00708 21.1495 -15.4244 -154.583 -24.1497 -197.344
lowerback -7.41177 -9.24974 -10.7107
upperback -8.83228 -13.3418 -2.93068
thorax -3.77048 -6.78462 2.05726
lowerneck -17.0473 2.1846 1.06898
upperneck 35.2648 -0.615662 1.3755
head 15.1904 -0.982872 -0.00810611
rclavicle 3.00972e-014 3.10104e-014
rhumerus -37.7334 -66.2529 49.6713
rradius 16.6594
rwrist 53.1891
rhand -12.8107 0.100225
rfingers 7.12502
rthumb 13.2757 -29.457
lclavicle 3.00972e-014 3.10104e-014
lhumerus 41.0726 -18.8755 -16.0947
lradius 22.8958
lwrist -34.5409
lhand 4.56929 32.9342
lfingers 7.12502
lthumb 29.9591 60.5289
rfemur -64.4623 24.6501 -89.7784
rtibia 41.7916
rfoot -83.653 28.0784
rtoes 63.7857
lfemur 24.7586 -13.4219 1.03092
ltibia 14.1576
lfoot 20.8711 56.5856
ltoes 36.1766
346
root 1.06322 21.0756 -15.5739 -153.162 -22.7997 -198.414
lowerback -8.04931 -9.1657 -12.8052
upperback -9.71054 -13.3581 -2.80367
thorax -4.01223 -6.74054 3.20343
lowerneck -15.112 2.21693 1.01295
upperneck 34.6861 -0.447548 0.955525
head 14.4672 -1.03245 -0.146714
rclavicle 5.70574e-015 -1.23743e-014
rhumerus -38.9193 -66.2084 49.8064
rradius 16.7386
rwrist 53.2192
rhand -13.1472 0.494126
rfingers 7.12502
rthumb 12.9513 -29.0839
lclavicle 5.70574e-015 -1.23743e-014
lhumerus 39.4514 -20.2741 -14.3928
lradius 23.1412
lwrist -35.4158
lhand 5.59608 33.4738
lfingers 7.12502
lthumb 30.9384 60.887
rfemur -62.9339 18.0056 -82.2614
rtibia 40.0321
rfoot -76.6375 17.6626
rtoes 63.6885
lfemur 22.7307 -13.0158 -1.34601
ltibia 14.6816
lfoot 9.9485 58.0992
ltoes 39.7255
347
root 1.07195 21.022 -15.7732 -152.454 -23.1347 -197.198
lowerback -9.83582 -9.11607 -11.5479
upperback -9.8015 -13.0638 -2.40866
thorax -3.3059 -6.69824 2.6926
lowerneck -15.6327 2.22557 0.78333
upperneck 35.0106 -0.390268 1.00251
head 14.7353 -1.0271 -0.0803081
rclavicle -9.90165e-014 -7.06183e-014
rhumerus -45.503 -67.6586 55.0976
rradius 16.6601
rwrist 55.1817
rhand -13.3731 1.02554
rfingers 7.12502
rthumb 12.7335 -28.5662
lclavicle -9.90165e-014 -7.06183e-014
lhumerus 39.6972 -22.3606 -14.7528
lradius 22.3884
lwrist -33.3199
lhand 4.78104 33.7016
lfingers 7.12502
lthumb 30.1611 61.2596
rfemur -62.0575 14.2993 -73.5042
rtibia 38.9713
rfoot -72.2305 7.75756
rtoes 63.4483
lfemur 20.2512 -12.3188 -0.519538
ltibia 15.3497
lfoot 11.6 56.7743
ltoes 38.5485
348
root 1.1053 20.9563 -15.8909 -152.055 -22.6971 -196.883
lowerback -9.89883 -8.89026 -11.5466
upperback -9.86485 -12.7372 -2.17299
thorax -3.32253 -6.51905 2.96936
lowerneck -16.4393 2.18807 0.594026
upperneck 35.2558 -0.270332 0.825482
head 15.0348 -0.999328 -0.097291
rclavicle 1.27825e-013 6.86925e-014
rhumerus -55.4259 -69.5308 63.9447
rradius 16.3344
rwrist 58.2576
rhand -13.4763 2.31076
rfingers 7.12502
rthumb 12.6341 -27.2871
lclavicle 1.27825e-013 6.86925e-014
lhumerus 38.5138 -22.703 -12.8389
lradius 22.3892
lwrist -33.2985
lhand 3.56661 33.1839
lfingers 7.12502
lthumb 29.0019 60.9473
rfemur -61.6053 11.8602 -66.8935
rtibia 37.5434
rfoot -68.1568 3.67104
rtoes 63.4569
lfemur 18.1989 -11.829 -1.2553
ltibia 16.2973
lfoot 8.31639 56.223
ltoes 38.9924
349
root 1.12938 20.858 -16.0833 -151.836 -22.9501 -195.907
lowerback -10.9299 -8.89789 -10.8168
upperback -10.097 -12.6997 -1.87168
thorax -3.08687 -6.55859 2.75676
lowerneck -15.7322 2.37922 0.946556
upperneck 35.307 -0.093727 0.564547
head 14.897 -0.952218 -0.245866
rclavicle -2.61681e-014 -2.80535e-014
rhumerus -51.9387 -66.6891 58.7627
rradius 14.9503
rwrist 55.3886
rhand -13.9891 2.86948
rfingers 7.12502
rthumb 12.1397 -26.7583
lclavicle -2.61681e-014 -2.80535e-014
lhumerus 36.829 -23.9049 -10.9597
lradius 22.7452
lwrist -33.4045
lhand 2.69093 33.0003
lfingers 7.12502
lthumb 28.1652 60.9045
rfemur -61.2229 9.32345 -59.0051
rtibia 37.1099
rfoot -63.7014 -7.91118
rtoes 62.3191
lfemur 16.1042 -11.187 -0.8645
ltibia 17.2107
lfoot 5.21742 55.334
ltoes 39.8941
350
root 1.15807 20.7379 -16.2617 -151.806 -22.8194 -195.244
lowerback -11.8152 -8.88603 -10.5258
upperback -9.68584 -12.4496 -1.62277
thorax -2.17851 -6.46037 2.68427
lowerneck -16.9106 2.43506 0.925888
upperneck 35.6797 0.0960504 0.43188
head 15.3506 -0.862125 -0.263111
rclavicle 3.30417e-014 3.7533e-014
rhumerus -58.8092 -67.1464 63.5226
rradius 15.1474
rwrist 56.6457
rhand -13.4432 3.63285
rfingers 7.12502
rthumb 12.666 -25.9631
lclavicle 3.30417e-014 3.7533e-014
lhumerus 35.5231 -23.9863 -8.77748
lradius 22.1273
lwrist -33.4613
lhand 0.612729 32.0796
lfingers 7.12502
lthumb 26.1771 60.2947
rfemur -61.0433 6.00757 -50.582
rtibia 36.9
rfoot -56.1335 -20.0897
rtoes 61.2008
lfemur 14.3317 -10.6096 -1.14855
ltibia 18.2626
lfoot -0.122612 54.7719
ltoes 42.0842
351
root 1.18237 20.6188 -16.4265 -152.035 -22.6299 -194.478
lowerback -12.2221 -8.76768 -9.91515
upperback -9.44044 -12.2052 -1.44413
thorax -1.77717 -6.35851 2.49287
lowerneck -17.5724 2.56744 0.847133
upperneck 36.0393 0.347666 0.345356
head 15.6828 -0.776048 -0.243876
rclavicle -2.51664e-014 -4.71617e-014
rhumerus -64.6623 -67.2096 67.4263
rradius 14.8719
rwrist 58.2319
rhand -12.8633 4.72873
rfingers 7.12502
rthumb 13.225 -24.8318
lclavicle -2.51664e-014 -4.71617e-014
lhumerus 33.4465 -23.8501 -5.91792
lradius 21.9736
lwrist -34.7249
lhand -0.964112 30.7387
lfingers 7.12502
lthumb 24.6666 59.1689
rfemur -61.0572 0.567248 -39.2798
rtibia 37.6095
rfoot -40.5162 -33.7781
rtoes 58.4854
lfemur 12.9203 -10.163 -1.54115
ltibia 19.1015
lfoot -5.60245 53.02
ltoes 43.3933
